<?xml version="1.0" standalone="no"?><!DOCTYPE svg PUBLIC "-//W3C//DTD SVG 1.1//EN" "http://www.w3.org/Graphics/SVG/1.1/DTD/svg11.dtd"><svg class="icon" style="" viewBox="0 0 1024 1024" version="1.1" xmlns="http://www.w3.org/2000/svg" p-id="8348" xmlns:xlink="http://www.w3.org/1999/xlink" width="200" height="200"><defs><style type="text/css"><![CDATA[

]]></style></defs><path d="M805.888 344.448C805.888 189.568 665.792 64 510.08 64S218.112 189.568 218.112 344.448c0 143.616 288.704 487.488 288.704 487.488S805.888 492.864 805.888 344.448L805.888 344.448zM417.024 354.368c0-52.992 43.904-96 97.984-96 54.144 0 97.984 42.944 97.984 96s-43.904 96-97.984 96C460.928 450.304 417.024 407.36 417.024 354.368L417.024 354.368zM608.832 840.32c0.832 2.496 1.28 5.12 1.28 7.68 0 26.496-43.904 48-97.984 48-54.08 0-97.984-21.504-97.984-48 0-2.624 0.448-5.184 1.28-7.68C356.096 851.328 316.16 872.128 316.16 896c0 35.392 87.744 64 195.968 64s195.968-28.608 195.968-64C708.032 872.128 668.096 851.328 608.832 840.32L608.832 840.32zM608.832 840.32" p-id="8349" fill="#7fbce9"></path></svg>